<?xml version="1.0" encoding="utf-8"?>
<!-- Generator: Adobe Illustrator 16.0.0, SVG Export Plug-In . SVG Version: 6.00 Build 0)  -->
<!DOCTYPE svg PUBLIC "-//W3C//DTD SVG 1.1//EN" "http://www.w3.org/Graphics/SVG/1.1/DTD/svg11.dtd">
<svg version="1.1" id="Layer_1" xmlns="http://www.w3.org/2000/svg" xmlns:xlink="http://www.w3.org/1999/xlink" x="0px" y="0px"
	 width="612px" height="792px" viewBox="0 0 612 792" enable-background="new 0 0 612 792" xml:space="preserve">
<g>
	<path fill="#404042" d="M72.868,640.42c-0.183-0.766-0.53-2.312-0.714-3.076c3.524-5.046,7.375-9.875,11.082-14.793
		c2.107-2.462,5.386-0.21,7.716,0.569c-0.041-3.693-0.557-7.771,1.641-11.012c2.996-4.792,9.599-6.842,14.736-4.337
		c6.903,3.247,11.897,9.41,16.111,15.575c13.298-4.807,27.948-6.43,41.767-2.827c23.759,5.662,43.389,25.599,48.592,49.489
		c6.099,25.234-4.417,53.406-25.618,68.415c-16.744,12.383-39.489,16.002-59.282,9.604c-19.172-5.868-35.156-21.042-42.1-39.853
		c-6.578-17.261-5.37-37.192,3.034-53.64C84.349,649.629,77.918,645.801,72.868,640.42L72.868,640.42z"/>
	<path fill="#404041" d="M74.458,355.654c-2.004-1.27-2.39-3.656-2.904-5.802c4.181-3.99,7.104-9.037,10.72-13.501
		c1.851-3.334,5.785-1.119,8.281-0.066c-1.667-7.242,2.397-15.876,10.44-16.45c10.121,0.075,16.776,9.312,22.192,16.749
		c13.716-5.353,29.13-6.521,43.333-2.467c19.645,5.324,36.339,20.279,43.81,39.195c8.328,20.554,5.452,45.203-7.626,63.147
		c-14.547,20.936-41.814,31.676-66.756,26.58c-20.571-3.737-38.774-17.98-47.538-36.932c-8.799-18.353-8.085-40.52,0.989-58.644
		C84.479,363.467,79.304,359.761,74.458,355.654L74.458,355.654z"/>
	<path fill="#404041" d="M72.291,66.909c-2.735-2.889,1.119-5.934,2.664-8.302c3.288-3.446,5.21-8.454,9.302-10.972
		c1.456,0.38,4.352,1.104,5.789,1.468c-1.448-7.06,2.544-15.53,10.351-16.107c10.102-0.085,16.886,9.132,22.247,16.532
		c13.807-4.897,29.074-6.485,43.295-2.32c19.482,5.159,36.084,19.895,43.665,38.557c12.708,29.102,0.623,65.957-26.782,81.923
		c-15.056,9.249-33.908,12.042-51.023,7.645c-18.825-4.558-35.189-18.022-43.514-35.483c-9-18.424-8.65-40.991,0.769-59.187
		C83.515,76.03,77.34,72.108,72.291,66.909L72.291,66.909z"/>
	<path fill="#E48F35" d="M89.117,649.478c-4.756-4.088-10.584-7.118-14.123-12.447c6.518,2.394,11.476,7.48,17.052,11.442
		c2.788,1.797,5.413,5.051,9.142,4.172c-6.253-7.945-17.233-11.076-22.414-19.697c9.745,4.703,16.819,13.555,26.781,17.87
		c-5.038-9.91-17.855-12.768-23.73-22.187c9.47,3.844,15.527,13.335,25.396,16.342c-5.491-8.928-17.108-11.823-22.454-20.807
		c9.363,4.992,17.4,12.098,26.09,18.146c4.371,2.523,4.271,8.585,2.929,12.791c-1.504,4.314-7.056,3.941-10.768,4.474
		C97.755,657.236,93.745,652.855,89.117,649.478L89.117,649.478z"/>
	<path fill="#8DC63E" d="M83.197,358.372c-2.989-2.471-6.977-4.467-7.93-8.581c8.798,4.849,15.58,12.791,24.85,16.781
		c-4.364-9.421-17.034-11.405-21.724-20.625c9.744,4.61,16.583,14.354,26.997,17.379c-6.546-8.727-17.2-13.079-24.582-21.04
		c7.227,1.446,12.004,7.664,17.889,11.604c2.496,1.416,5.048,4.943,8.249,3.118c-7.072-6.979-16.086-11.623-22.868-18.914
		c7.738,1.919,13.153,8.407,19.802,12.457c3.936,3.343,10.637,5.646,10.19,11.871c0.479,3.129-0.975,5.97-2.098,8.756
		c-4.059,0.332-8.877,2.999-12.45-0.128C93.857,367.128,88.772,362.441,83.197,358.372L83.197,358.372z"/>
	<path fill="#0B76BE" d="M88.721,76.077c-4.794-4.162-10.84-7.192-14.106-12.846c9.251,4.082,15.652,12.863,25.267,16.179
		c-5.09-8.802-16.542-11.332-21.742-20.008c9.797,4.484,16.636,13.737,26.798,17.47C98.991,67.362,87.137,63.74,80.462,54.74
		c9.888,3.441,15.854,13.572,25.887,16.561C100.84,62.5,90.023,59.058,83.607,50.985c5.462,1.412,9.563,5.446,14.063,8.572
		c4.537,3.376,9.345,6.392,13.556,10.153c3.134,2.434,2.43,6.967,2.217,10.424c-0.975,5.117-6.962,5.108-11.039,5.587
		C97.085,83.836,93.239,79.31,88.721,76.077L88.721,76.077z"/>
	<path fill="#E38F33" d="M95.072,626.847c-0.572-5.042-2.547-11.918,2.617-15.275c4.036-3.063,9.372-0.906,12.798,2.02
		c5.247,4.416,9.988,9.87,12.381,16.383c2.559,7.184-3.036,14.999,1.524,21.727c-2.04-0.67-4.06-1.322-6.101-1.975
		c-1.005-3.074-1.246-6.822-4.088-8.856C108.007,635.963,101.376,631.604,95.072,626.847L95.072,626.847z"/>
	<path fill="#8DC63E" d="M95.457,340.335c-3.995-6.038-1.773-17.852,7.291-17.19c8.103,2.024,13.7,9.261,17.951,16.008
		c5.016,7.709,0.079,16.798,1.874,25.13c-1.11-0.252-3.332-0.758-4.441-1.011C116.512,351.244,103.057,347.895,95.457,340.335
		L95.457,340.335z"/>
	<path fill="#0E76BC" d="M97.845,55.771c-7.232-4.614-6.017-20.158,4.376-19.464c7.903,1.846,13.517,8.861,17.731,15.371
		c5.29,7.766,0.589,16.999,2.13,25.478c-1.127-0.234-3.386-0.685-4.515-0.903C116.661,65.407,104.898,62.002,97.845,55.771
		L97.845,55.771z"/>
	<path fill="#577B93" d="M98.747,124.566c-2.886-7.13-2.79-15.958-0.089-23.15C98.542,109.132,98.535,116.85,98.747,124.566
		L98.747,124.566z"/>
	<path fill="#E48F33" d="M152.626,743.064c-24.28-0.385-46.601-18.517-52.569-41.951c-3.129-11.807-2.419-24.657,2.315-35.931
		c1.104-3.388,5.547-2.411,8.275-3.396c-0.181,1.403-0.503,4.187-0.665,5.588c-3.709,15.131-1.755,31.889,7.6,44.635
		c13.004,18.944,39.316,27.098,60.688,18.513c7.294-2.887,14.078-7.246,19.473-12.97c0.528-0.656,1.583-1.986,2.126-2.642
		c4.598-5.595,7.809-12.133,10.293-18.906C207.4,723.508,179.838,744.806,152.626,743.064L152.626,743.064z"/>
	<path fill="#8DC63F" d="M142.999,455.201c-22.302-4.28-40.876-23.254-44.494-45.727c-1.853-10.117-0.813-20.766,2.959-30.344
		c0.776-4.096,5.765-3.339,8.765-4.454c-0.161,1.363-0.486,4.095-0.646,5.46c-3.456,14.656-2.14,30.835,6.578,43.471
		c12.46,19.857,39.264,28.683,61.111,20.242c6.366-2.229,12.074-6.043,17.165-10.435c1.291-1.112,2.509-2.316,3.672-3.573
		c4.033-4.702,6.882-10.238,10.17-15.467c-0.533,9.445-6.619,17.482-12.632,24.333C182.436,452.669,161.842,459.415,142.999,455.201
		L142.999,455.201z"/>
	<path fill="#0E76BC" d="M153.43,169.241c-25.697,0.402-50.079-19.365-54.683-44.674c-0.211-7.717-0.205-15.435-0.089-23.15
		c0.522-4.15,2.136-8.067,3.714-11.928c2.401-0.584,4.803-1.188,7.204-1.793c-0.087,2.002-0.249,4.006-0.464,5.972
		c-4.089,16.458-1.114,34.926,10.226,47.906c13.018,16.032,36.087,22.625,55.644,16.061c7.276-2.23,13.769-6.407,19.53-11.293
		c0.728-0.73,2.181-2.169,2.926-2.898c5.052-6.124,8.972-13.156,11.601-20.655C206.401,149.38,179.822,170.404,153.43,169.241
		L153.43,169.241z"/>
	<path fill="#FFFFFF" d="M117.582,712.009c-9.355-12.746-11.309-29.504-7.6-44.635c4.216,8.074,9.324,15.656,15.248,22.547
		c4.741,6.054,12.806,7.607,18.601,12.312c4.376,5.473,6.207,12.769,11.419,17.585c3.443,2.925,7.645,0.134,10.334-2.382
		c7.737,1.682,15.799,0.231,23.428,2.644c3.223,1.121,6.315-0.467,8.73-2.527c-5.395,5.724-12.179,10.083-19.473,12.97
		C156.898,739.106,130.586,730.953,117.582,712.009L117.582,712.009z"/>
	<path fill="#FEFEFE" d="M116.162,423.607c-8.718-12.636-10.034-28.814-6.578-43.471c4.053,8.587,9.578,16.385,15.813,23.53
		c4.631,5.435,12.022,7.043,17.58,11.275c5.177,5.544,6.483,14.187,12.913,18.655c3.534,1.814,6.679-0.9,9.205-3.053
		c9.793,1.096,19.586,1.608,29.343,2.87c-5.09,4.392-10.799,8.205-17.165,10.435C155.425,452.29,128.622,443.465,116.162,423.607
		L116.162,423.607z"/>
	<path fill="#FEFEFD" d="M119.338,141.573c-11.339-12.98-14.315-31.448-10.226-47.906c4.526,8.472,9.943,16.474,16.323,23.653
		c5.797,6.599,16.809,7.002,20.481,15.642c3.027,4.709,4.747,10.931,9.884,13.835c3.388,1.797,6.387-1.229,8.914-3.089
		c4.661,0.776,9.394,1.151,14.125,1.071c5.315-0.153,10.305,2.587,15.672,1.561c-5.761,4.886-12.254,9.063-19.53,11.293
		C155.425,164.197,132.355,157.605,119.338,141.573L119.338,141.573z"/>
	<path fill="#E5BFA2" d="M115.52,670.625c-4.159-5.891-0.661-16.162,6.582-17.555c-0.163,1.036-0.47,3.111-0.613,4.131
		c4.347-1.353,9.914-3.253,12.997,1.384c-2.875,1.205-5.767,2.357-8.641,3.563c3.188,1.014,9.626-1.544,10.233,3.113
		c-4.224-0.704-9.698,1.125-8.926,6.348c3.796,8.312,9.432,15.638,12.994,24.06C128.309,691.827,121.759,680.554,115.52,670.625
		L115.52,670.625z"/>
	<path fill="#E6BEA0" d="M125.99,399.279c-4.813-6.419-10.483-12.653-12.878-20.458c0.375-4.421,2.928-13.744,8.792-11.551
		c-0.581,1.038-1.762,3.115-2.361,4.155c4.62-2.212,11.132-5.094,14.415,0.486c-3.31,1.245-6.602,2.522-9.749,4.147
		c4.15-0.043,9.406-2.142,12.379,1.928c-4.369-0.484-11.755,1.691-9.472,7.495c3.889,8.057,8.996,15.458,12.975,23.479
		C134.829,406.71,129.401,404.113,125.99,399.279L125.99,399.279z"/>
	<path fill="#E6BFA1" d="M114.193,95.896c-3.411-5.674,0.249-16.417,7.73-16.065c-0.98,1.731-1.979,3.426-2.997,5.083
		c4.492-2.718,11.077-5.275,14.78-0.002c-3.275,1.277-6.567,2.539-9.841,3.818c4.132,0.32,9.28-1.507,12.197,2.438
		c-4.369-0.412-11.191,1.308-9.526,7.13c3.923,8.222,9.213,15.711,13.139,23.915C127.439,117.991,120.487,106.407,114.193,95.896
		L114.193,95.896z"/>
	<path fill="#FFFFFF" d="M128.742,651.804c-1.569-2.728-4.359-5.599-2.597-8.932c9.998-8.133,22.659-12.481,35.526-12.521
		c-1.261,8.577-1.684,17.931,2.787,25.733c1.059,2.654,3.811,5.109,2.486,8.222c-1.702,6.354,0.346,12.832,3.867,18.143
		c-4.605-0.447-9.265-0.278-13.869-0.838c-5.321-3.703-10.423-7.81-15.289-12.079C138.205,663.239,138.225,652.1,128.742,651.804
		L128.742,651.804z"/>
	<path fill="#FFFFFF" d="M124.75,359.713c0.777-3.879,3.448-6.721,6.613-8.909c3.345-1.59,6.729-3.14,10.258-4.292l0.38-1.201
		c6.424-0.647,12.719-2.549,19.253-1.794c-2.096,10.741-0.66,22.261,5.87,31.261c-2.466,7.046-0.944,14.687,3.233,20.724
		c-4.677-0.412-9.409-0.131-14.016-0.89c-5.465-3.759-10.477-8.119-15.687-12.226c-2.268-6.604-3.212-16.793-12.057-17.436
		C127.303,363.222,126.045,361.475,124.75,359.713L124.75,359.713z"/>
	<path fill="#FFFFFF" d="M127.872,78.003c-1.515-2.6-4.649-5.908-2.161-8.932c5.342-5.668,12.911-8.264,19.95-11.114
		c4.968-0.606,9.937-1.033,14.904-1.314c-1.495,10.741-0.568,22.187,6.089,31.149c-2.319,7.065-0.907,14.689,3.142,20.835
		c-4.37-0.357-8.773-0.477-13.159-0.398c-5.649-4.051-11.079-8.412-16.454-12.808C137.952,88.765,136.882,78.354,127.872,78.003
		L127.872,78.003z"/>
	<path fill="#E48F35" d="M126.146,642.872c0.27-1.348,0.831-4.041,1.102-5.39c10.037-6.641,22.648-8.021,34.424-7.132
		C148.804,630.391,136.143,634.739,126.146,642.872L126.146,642.872z"/>
	<path fill="#E49034" d="M131.558,672.73c-3.007-2.636,0.683-6.08,3.58-3.59c12.079,9.029,23.779,18.602,35.713,27.848
		c1.914,1.909,5.229,3.578,4.778,6.745c-1.723,4.372-6.496,1.139-8.774-0.934C155.156,692.697,143.148,682.943,131.558,672.73
		L131.558,672.73z"/>
	<path fill="#8DC53D" d="M130.775,385.458c-3.17-2.67,2.305-5.773,4.255-2.937c13.483,10.608,27.768,20.509,40.197,32.32
		c0.809,6.043-5.509,4.468-8.151,1.559C155.031,406.025,142.567,396.088,130.775,385.458L130.775,385.458z"/>
	<path fill="#0E76BD" d="M136.738,104.31c-3.043-2.691-7.379-5.049-7.313-9.728c5.532-0.116,9.288,4.1,13.314,7.188
		c9.53,7.521,19.096,15.004,28.645,22.527c2.295,1.56,3.191,4.217,4.05,6.709c-1.382,0.203-4.148,0.624-5.532,0.827
		C158.351,123.296,147.998,113.248,136.738,104.31L136.738,104.31z"/>
	<path fill="#8CC93B" d="M136.013,395.095c12.861,7.026,19.796,20.284,26.402,32.722c-0.891,0.931-2.69,2.79-3.599,3.735
		c-4.699-3.285-6.928-8.725-9.719-13.524C144.791,410.354,140.393,402.733,136.013,395.095L136.013,395.095z"/>
	<path fill="#E48E31" d="M155.9,715.629c-6.586-10.801-13.137-21.73-18.522-33.188c11.859,7.009,18.718,19.267,24.797,31.141
		C163.345,717.512,157.488,719.413,155.9,715.629L155.9,715.629z"/>
	<path fill="#1076BD" d="M155.229,142.174c-6.532-10.856-13.008-21.839-18.667-33.188c11.675,6.353,18.19,18.302,24.248,29.557
		C163.583,142.453,157.582,145.901,155.229,142.174L155.229,142.174z"/>
	<path fill="#E6BFA2" d="M165.091,140.158c-2.228-4.984-5.182-9.584-7.993-14.257c4.227,3.051,7.854,7.105,12.681,9.264
		c5.209,2.14,10.586-4.693,7.412-9.292c-4.577-5.908-11.498-9.393-16.838-14.556c9.737-0.268,19.807,2.628,26.06,10.5
		c-2.708-10.132-16.088-12.572-17.305-23.47c-2.213-7.369,3.804-12.874,9.186-16.65c-3.495,0.643-6.932,1.504-10.316,2.527
		c-5.676-10.128-5.82-22.34-1.867-33.103c12.873,4.039,24.332,11.958,32.702,22.539c-2.562,2.77-5.782,4.724-9.255,6.073
		c4.077,0.396,8.061-0.339,11.735-2.199c4.691,7.928,9.125,16.822,8.083,26.323c-0.733,9.247-5.143,17.68-10.119,25.314
		c-2.707,4.007-2.645,9.23-5.46,13.166c-3.582,2.152-7.645-0.315-11.357-0.712C176.65,141.161,170.753,141.752,165.091,140.158
		L165.091,140.158z"/>
	<path fill="#E6BFA2" d="M166.634,714.029c-3.1-3.963-5.18-8.582-7.227-13.147c3.699,2.725,6.962,6.161,11.205,8.083
		c5.246,2.177,10.823-5.039,7.23-9.566c-4.468-5.727-11.333-8.938-16.273-14.263c9.682-0.433,19.187,2.902,25.769,10.101
		c-2.12-5.493-6.767-9.162-11.23-12.688c-4.884-3.725-7.15-10.2-6.303-16.189c0.829-5.316,5.995-7.871,9.849-10.789
		c-3.694,0.442-7.333,1.229-10.844,2.4c-5.729-10.021-5.546-21.96-2.232-32.74c13.254,2.965,24.206,11.797,32.992,21.775
		c-2.888,3.517-6.725,5.925-10.689,8.022c4.604-0.843,9.042-2.688,13.719-3.003c4.524,7.526,8.395,16.131,7.662,25.122
		c-0.623,9.393-5.088,17.972-10.136,25.731c-2.653,3.917-2.589,9.069-5.333,12.896c-2.198,2.349-5.604,0.697-8.244,0.265
		C180.049,714.137,173.081,716.225,166.634,714.029L166.634,714.029z"/>
	<path fill="#E6BFA2" d="M165.653,427.195c-2.208-4.529-4.726-8.894-7.099-13.351c4.045,2.616,7.398,6.36,11.825,8.339
		c5.608,1.828,10.693-5.695,6.719-10.166c-4.648-5.289-11.005-8.684-15.962-13.682c9.7-0.706,18.749,3.103,25.857,9.48
		c-4.072-9.458-17.144-12.497-17.67-23.834c-1.576-7.26,4.86-11.874,9.804-15.759c-3.583,0.844-7.131,1.85-10.623,3.001
		c-5.82-10.092-5.856-22.286-2.087-33.123c12.983,3.769,24.479,11.869,32.758,22.504c-2.927,3.17-6.617,5.377-10.674,6.749
		c4.623-0.08,9.153-1.014,13.391-2.895c4.58,8.273,9.233,17.404,7.828,27.179c-0.95,9.193-5.542,17.463-10.482,25.077
		c-2.524,3.972-2.025,9.448-5.551,12.821c-4.165,1.698-8.283-1.48-12.524-1.219C175.975,428.344,170.752,428.279,165.653,427.195
		L165.653,427.195z"/>
	<path fill="#FCFEFD" d="M198.109,429.842c2.224-10.159,8.8-18.341,13.044-27.647c-0.668,3.768-1.534,7.5-2.312,11.252l-0.563,0.929
		C204.992,419.604,202.142,425.14,198.109,429.842L198.109,429.842z"/>
	<path fill="#FCFEFD" d="M197.438,143.442c2.388-10.489,9.162-18.942,13.427-28.649c-0.542,2.695-1.03,5.371-1.826,7.994
		C206.41,130.287,202.489,137.319,197.438,143.442L197.438,143.442z"/>
	<path fill="#FEFEFD" d="M199.869,714.91c0.77-10.102,8.765-17.357,11.828-26.699c-0.451,2.603-0.755,5.262-1.535,7.793
		C207.678,702.777,204.467,709.315,199.869,714.91L199.869,714.91z"/>
	
		<text transform="matrix(-0.0015 -1 1 -0.0015 257.1699 755.0459)" fill="#E38F33" font-family="'ShowcardGothic-Reg'" font-size="30.9405">Zebo</text>
	<text transform="matrix(-0.0015 -1 1 -0.0015 271.7324 757.1045)"><tspan x="0" y="0" fill="#404042" font-family="'ShowcardGothic-Reg'" font-size="18.2003" letter-spacing="1">Restor</tspan><tspan x="77.846" y="0.001" fill="#404042" font-family="'ShowcardGothic-Reg'" font-size="40.0407" letter-spacing="3">APP</tspan></text>
	
		<text transform="matrix(-0.0015 -1 1 -0.0015 258.584 476.2129)" fill="#8DC63F" font-family="'ShowcardGothic-Reg'" font-size="30.9405">Zebo</text>
	<text transform="matrix(-0.0015 -1 1 -0.0015 273.1475 478.2813)"><tspan x="0" y="0" fill="#404042" font-family="'ShowcardGothic-Reg'" font-size="18.2003" letter-spacing="1">Restor</tspan><tspan x="77.846" y="0" fill="#404042" font-family="'ShowcardGothic-Reg'" font-size="40.0407" letter-spacing="3">APP</tspan></text>
	
		<text transform="matrix(-0.0015 -1 1 -0.0015 256.3564 194.8237)" fill="#0E76BC" font-family="'ShowcardGothic-Reg'" font-size="30.9405">Zebo</text>
	<text transform="matrix(-0.0015 -1 1 -0.0015 270.9189 196.8833)"><tspan x="0" y="0" fill="#404042" font-family="'ShowcardGothic-Reg'" font-size="18.2003" letter-spacing="1">Restor</tspan><tspan x="77.845" y="0" fill="#404042" font-family="'ShowcardGothic-Reg'" font-size="40.0407" letter-spacing="3">APP</tspan></text>
	<path fill="#404042" d="M410.689,726.576c-0.096-0.396-0.274-1.194-0.367-1.591c1.823-2.612,3.814-5.108,5.73-7.655
		c1.091-1.271,2.787-0.108,3.994,0.297c-0.022-1.911-0.291-4.02,0.848-5.698c1.549-2.478,4.965-3.539,7.624-2.245
		c3.571,1.683,6.155,4.87,8.337,8.059c6.88-2.485,14.46-3.326,21.607-1.462c12.293,2.931,22.449,13.245,25.14,25.604
		c3.158,13.057-2.282,27.634-13.254,35.397c-8.661,6.406-20.431,8.278-30.672,4.969c-9.919-3.037-18.188-10.887-21.78-20.619
		c-3.403-8.931-2.776-19.242,1.57-27.752C416.629,731.343,413.304,729.358,410.689,726.576L410.689,726.576z"/>
	<path fill="#E48F35" d="M419.095,731.263c-2.459-2.115-5.476-3.683-7.307-6.439c3.373,1.24,5.939,3.87,8.823,5.919
		c1.442,0.931,2.799,2.613,4.729,2.16c-3.233-4.11-8.916-5.733-11.598-10.192c5.043,2.433,8.704,7.013,13.857,9.248
		c-2.607-5.129-9.236-6.608-12.277-11.48c4.897,1.989,8.031,6.899,13.139,8.455c-2.843-4.621-8.852-6.117-11.615-10.765
		c4.841,2.583,9.002,6.259,13.495,9.387c2.263,1.307,2.212,4.44,1.518,6.617c-0.778,2.232-3.65,2.04-5.573,2.316
		C423.564,735.277,421.487,733.011,419.095,731.263L419.095,731.263z"/>
	<path fill="#E38F33" d="M422.177,719.552c-0.294-2.606-1.317-6.163,1.354-7.899c2.088-1.586,4.853-0.47,6.623,1.042
		c2.716,2.286,5.168,5.107,6.405,8.476c1.324,3.719-1.573,7.764,0.786,11.242c-1.053-0.347-2.1-0.682-3.152-1.021
		c-0.524-1.591-0.646-3.527-2.117-4.583C428.868,724.271,425.439,722.015,422.177,719.552L422.177,719.552z"/>
	<path fill="#E48F33" d="M451.953,779.683c-12.562-0.198-24.11-9.581-27.197-21.704c-1.618-6.108-1.251-12.757,1.194-18.589
		c0.573-1.754,2.872-1.248,4.283-1.759c-0.093,0.727-0.259,2.168-0.344,2.891c-1.919,7.829-0.908,16.499,3.934,23.092
		c6.728,9.803,20.34,14.021,31.398,9.582c3.772-1.496,7.284-3.751,10.076-6.711c0.271-0.341,0.815-1.028,1.098-1.37
		c2.379-2.892,4.042-6.275,5.327-9.778C480.292,769.565,466.03,780.583,451.953,779.683L451.953,779.683z"/>
	<path fill="#FFFFFF" d="M433.823,763.613c-4.842-6.593-5.853-15.263-3.934-23.092c2.181,4.179,4.825,8.102,7.892,11.664
		c2.452,3.134,6.624,3.937,9.621,6.373c2.266,2.83,3.212,6.604,5.908,9.096c1.782,1.513,3.955,0.068,5.347-1.231
		c4.005,0.872,8.176,0.119,12.124,1.367c1.666,0.583,3.263-0.242,4.517-1.306c-2.792,2.96-6.304,5.215-10.076,6.711
		C454.163,777.635,440.551,773.416,433.823,763.613L433.823,763.613z"/>
	<path fill="#E5BFA2" d="M432.756,742.203c-2.15-3.047-0.341-8.36,3.406-9.082c-0.083,0.536-0.242,1.611-0.319,2.138
		c2.251-0.701,5.131-1.683,6.724,0.715c-1.483,0.625-2.979,1.219-4.467,1.845c1.647,0.522,4.979-0.798,5.292,1.61
		c-2.187-0.362-5.015,0.58-4.616,3.284c1.964,4.299,4.88,8.09,6.722,12.45C439.373,753.173,435.986,747.34,432.756,742.203
		L432.756,742.203z"/>
	<path fill="#FFFFFF" d="M439.599,732.466c-0.815-1.409-2.256-2.897-1.344-4.621c5.171-4.207,11.719-6.459,18.381-6.479
		c-0.653,4.438-0.876,9.278,1.44,13.313c0.545,1.376,1.973,2.645,1.285,4.255c-0.88,3.287,0.181,6.639,2.002,9.385
		c-2.384-0.23-4.792-0.141-7.177-0.431c-2.754-1.917-5.392-4.041-7.908-6.251C444.492,738.382,444.504,732.619,439.599,732.466
		L439.599,732.466z"/>
	<path fill="#E48F35" d="M438.255,727.845c0.137-0.695,0.427-2.09,0.567-2.789c5.193-3.435,11.719-4.15,17.813-3.689
		C449.974,721.386,443.426,723.638,438.255,727.845L438.255,727.845z"/>
	<path fill="#E49034" d="M441.055,743.293c-1.555-1.364,0.353-3.146,1.85-1.856c6.253,4.669,12.305,9.624,18.479,14.408
		c0.99,0.988,2.706,1.849,2.473,3.488c-0.89,2.265-3.358,0.59-4.539-0.482C453.262,753.624,447.049,748.578,441.055,743.293
		L441.055,743.293z"/>
	<path fill="#E48E31" d="M453.647,765.488c-3.406-5.589-6.797-11.241-9.584-17.171c6.138,3.626,9.687,9.967,12.83,16.109
		C457.499,766.462,454.47,767.444,453.647,765.488L453.647,765.488z"/>
	<path fill="#E6BFA2" d="M459.2,764.658c-1.604-2.048-2.68-4.438-3.735-6.802c1.91,1.41,3.601,3.189,5.793,4.185
		c2.717,1.125,5.601-2.609,3.742-4.948c-2.311-2.965-5.862-4.625-8.419-7.381c5.009-0.223,9.93,1.502,13.331,5.226
		c-1.096-2.844-3.5-4.74-5.812-6.564c-2.523-1.926-3.695-5.277-3.259-8.374c0.428-2.751,3.101-4.075,5.099-5.585
		c-1.912,0.23-3.796,0.639-5.616,1.242c-2.961-5.184-2.868-11.359-1.152-16.938c6.859,1.534,12.524,6.104,17.071,11.265
		c-1.497,1.819-3.478,3.066-5.532,4.149c2.383-0.433,4.68-1.389,7.099-1.553c2.34,3.896,4.341,8.348,3.963,13
		c-0.321,4.858-2.632,9.298-5.243,13.313c-1.372,2.028-1.34,4.691-2.761,6.669c-1.137,1.216-2.898,0.362-4.262,0.141
		C466.143,764.716,462.536,765.797,459.2,764.658L459.2,764.658z"/>
	<path fill="#FEFEFD" d="M476.396,765.114c0.401-5.224,4.535-8.981,6.122-13.812c-0.232,1.347-0.393,2.722-0.795,4.033
		C480.438,758.839,478.774,762.223,476.396,765.114L476.396,765.114z"/>
	
		<text transform="matrix(-0.0015 -1 1 -0.0015 453.7275 697.6064)" fill="#E38F33" font-family="'ShowcardGothic-Reg'" font-size="25.9765">Zebo</text>
	<text transform="matrix(-0.0015 -1 1 -0.0015 465.9531 699.3389)"><tspan x="0" y="0" fill="#404042" font-family="'ShowcardGothic-Reg'" font-size="15.2803" letter-spacing="1">Restor</tspan><tspan x="65.357" y="0" fill="#404042" font-family="'ShowcardGothic-Reg'" font-size="33.6167" letter-spacing="2">APP</tspan></text>
	<path fill="#404041" d="M403.892,456.046c-1.18-0.747-1.408-2.151-1.708-3.414c2.459-2.35,4.179-5.317,6.306-7.945
		c1.089-1.962,3.403-0.658,4.872-0.038c-0.98-4.261,1.411-9.342,6.146-9.679c5.955,0.044,9.87,5.478,13.058,9.852
		c8.069-3.147,17.14-3.835,25.499-1.449c11.558,3.134,21.378,11.933,25.774,23.062c4.899,12.096,3.208,26.598-4.486,37.157
		c-8.56,12.318-24.604,18.639-39.281,15.64c-12.104-2.2-22.813-10.581-27.969-21.73c-5.18-10.799-4.761-23.843,0.581-34.506
		C409.785,460.642,406.742,458.463,403.892,456.046L403.892,456.046z"/>
	<path fill="#8DC63E" d="M409.033,457.645c-1.761-1.454-4.106-2.628-4.667-5.047c5.178,2.853,9.167,7.523,14.622,9.872
		c-2.566-5.544-10.022-6.711-12.784-12.137c5.736,2.713,9.76,8.447,15.885,10.226c-3.848-5.134-10.116-7.694-14.463-12.38
		c4.255,0.852,7.065,4.509,10.527,6.828c1.468,0.835,2.972,2.91,4.854,1.836c-4.162-4.107-9.467-6.84-13.456-11.132
		c4.553,1.13,7.739,4.949,11.65,7.334c2.316,1.965,6.259,3.318,5.997,6.984c0.279,1.841-0.573,3.512-1.235,5.15
		c-2.388,0.195-5.224,1.767-7.324-0.075C415.304,462.796,412.313,460.038,409.033,457.645L409.033,457.645z"/>
	<path fill="#8DC63E" d="M416.247,447.032c-2.352-3.554-1.044-10.503,4.29-10.115c4.768,1.19,8.061,5.448,10.563,9.419
		c2.948,4.538,0.044,9.883,1.101,14.786c-0.652-0.147-1.96-0.446-2.614-0.594C428.636,453.451,420.718,451.481,416.247,447.032
		L416.247,447.032z"/>
	<path fill="#8DC63F" d="M444.218,514.618c-13.12-2.516-24.048-13.684-26.177-26.906c-1.091-5.948-0.479-12.219,1.74-17.853
		c0.457-2.411,3.392-1.966,5.159-2.621c-0.096,0.802-0.286,2.407-0.381,3.213c-2.032,8.622-1.259,18.144,3.869,25.58
		c7.335,11.684,23.105,16.873,35.958,11.909c3.745-1.313,7.106-3.555,10.102-6.142c0.76-0.654,1.479-1.362,2.16-2.103
		c2.373-2.763,4.046-6.024,5.986-9.1c-0.317,5.559-3.897,10.287-7.436,14.319C467.424,513.129,455.308,517.099,444.218,514.618
		L444.218,514.618z"/>
	<path fill="#FEFEFE" d="M428.429,496.031c-5.128-7.437-5.901-16.958-3.869-25.58c2.384,5.052,5.636,9.641,9.304,13.847
		c2.726,3.196,7.074,4.144,10.344,6.633c3.046,3.262,3.817,8.349,7.598,10.976c2.078,1.07,3.933-0.528,5.417-1.795
		c5.765,0.644,11.522,0.948,17.267,1.688c-2.995,2.587-6.356,4.828-10.102,6.142C451.534,512.904,435.764,507.715,428.429,496.031
		L428.429,496.031z"/>
	<path fill="#E6BEA0" d="M434.213,481.715c-2.833-3.776-6.168-7.444-7.579-12.035c0.221-2.604,1.725-8.09,5.174-6.801
		c-0.341,0.611-1.035,1.834-1.388,2.443c2.717-1.298,6.55-2.997,8.481,0.287c-1.947,0.733-3.886,1.488-5.737,2.439
		c2.443-0.023,5.535-1.259,7.284,1.134c-2.57-0.283-6.916,0.997-5.571,4.411c2.287,4.743,5.291,9.096,7.632,13.817
		C439.413,486.087,436.221,484.56,434.213,481.715L434.213,481.715z"/>
	<path fill="#FFFFFF" d="M433.481,458.433c0.458-2.282,2.03-3.954,3.893-5.242c1.97-0.935,3.96-1.848,6.038-2.525l0.222-0.706
		c3.778-0.379,7.481-1.499,11.327-1.056c-1.234,6.319-0.385,13.099,3.456,18.392c-1.451,4.148-0.558,8.646,1.902,12.197
		c-2.754-0.244-5.537-0.079-8.247-0.524c-3.214-2.212-6.164-4.777-9.231-7.195c-1.334-3.885-1.89-9.881-7.096-10.258
		C434.985,460.499,434.245,459.471,433.481,458.433L433.481,458.433z"/>
	<path fill="#8DC53D" d="M437.028,473.582c-1.865-1.572,1.355-3.396,2.504-1.728c7.936,6.242,16.337,12.066,23.651,19.018
		c0.475,3.554-3.24,2.629-4.797,0.917C451.298,485.683,443.967,479.836,437.028,473.582L437.028,473.582z"/>
	<path fill="#8CC93B" d="M440.11,479.253c7.566,4.133,11.648,11.936,15.534,19.256c-0.523,0.545-1.582,1.639-2.116,2.197
		c-2.766-1.934-4.076-5.135-5.718-7.96C445.274,488.231,442.688,483.748,440.11,479.253L440.11,479.253z"/>
	<path fill="#E6BFA2" d="M457.551,498.141c-1.301-2.665-2.779-5.233-4.178-7.854c2.382,1.538,4.353,3.742,6.959,4.904
		c3.3,1.079,6.29-3.35,3.954-5.982c-2.735-3.111-6.478-5.109-9.393-8.049c5.706-0.415,11.035,1.825,15.216,5.58
		c-2.398-5.566-10.089-7.355-10.399-14.024c-0.927-4.274,2.86-6.987,5.768-9.273c-2.109,0.497-4.194,1.089-6.25,1.768
		c-3.427-5.941-3.447-13.114-1.228-19.489c7.637,2.214,14.402,6.981,19.273,13.238c-1.721,1.867-3.893,3.165-6.28,3.974
		c2.721-0.049,5.386-0.599,7.878-1.705c2.696,4.868,5.434,10.243,4.61,15.992c-0.56,5.409-3.266,10.274-6.171,14.758
		c-1.484,2.335-1.189,5.559-3.266,7.544c-2.454,1-4.873-0.87-7.366-0.72C463.624,498.819,460.549,498.777,457.551,498.141
		L457.551,498.141z"/>
	<path fill="#FCFEFD" d="M476.648,499.696c1.31-5.977,5.178-10.788,7.675-16.267c-0.396,2.216-0.905,4.413-1.358,6.621l-0.33,0.546
		C480.694,493.672,479.021,496.934,476.648,499.696L476.648,499.696z"/>
	
		<text transform="matrix(-0.0015 -1 1 -0.0015 450.4063 422.2227)" fill="#8DC63F" font-family="'ShowcardGothic-Reg'" font-size="26.9962">Zebo</text>
	<text transform="matrix(-0.0015 -1 1 -0.0015 463.1113 424.0215)"><tspan x="0" y="0" fill="#404042" font-family="'ShowcardGothic-Reg'" font-size="15.8801" letter-spacing="1">Restor</tspan><tspan x="67.922" y="-0.001" fill="#404042" font-family="'ShowcardGothic-Reg'" font-size="34.9363" letter-spacing="3">APP</tspan></text>
	<path fill="#404041" d="M394.42,175.348c-1.602-1.694,0.657-3.479,1.561-4.866c1.931-2.021,3.057-4.954,5.455-6.431
		c0.852,0.224,2.55,0.648,3.391,0.859c-0.847-4.137,1.492-9.102,6.066-9.439c5.926-0.051,9.9,5.352,13.045,9.689
		c8.089-2.871,17.042-3.801,25.377-1.36c11.417,3.024,21.15,11.662,25.595,22.601c7.447,17.058,0.361,38.661-15.7,48.019
		c-8.825,5.422-19.874,7.061-29.907,4.483c-11.035-2.673-20.625-10.564-25.504-20.799c-5.275-10.799-5.072-24.028,0.45-34.692
		C400.999,180.695,397.38,178.395,394.42,175.348L394.42,175.348z"/>
	<path fill="#0B76BE" d="M404.053,180.723c-2.81-2.439-6.354-4.217-8.271-7.531c5.426,2.391,9.178,7.54,14.813,9.483
		c-2.984-5.16-9.695-6.643-12.744-11.728c5.743,2.628,9.751,8.051,15.707,10.241c-3.487-5.574-10.434-7.699-14.347-12.974
		c5.794,2.019,9.294,7.955,15.174,9.709c-3.228-5.159-9.57-7.178-13.328-11.91c3.2,0.829,5.603,3.192,8.238,5.023
		c2.662,1.98,5.478,3.748,7.947,5.951c1.838,1.427,1.426,4.084,1.3,6.109c-0.571,3-4.082,2.996-6.472,3.276
		C408.957,185.27,406.7,182.617,404.053,180.723L404.053,180.723z"/>
	<path fill="#0E76BC" d="M409.4,168.818c-4.24-2.702-3.527-11.813,2.566-11.406c4.63,1.081,7.924,5.193,10.394,9.007
		c3.1,4.553,0.344,9.965,1.246,14.936c-0.659-0.138-1.985-0.402-2.646-0.531C420.43,174.467,413.533,172.471,409.4,168.818
		L409.4,168.818z"/>
	<path fill="#577B93" d="M409.928,209.145c-1.69-4.18-1.635-9.356-0.051-13.569C409.808,200.095,409.804,204.621,409.928,209.145
		L409.928,209.145z"/>
	<path fill="#0E76BC" d="M441.981,235.331c-15.062,0.234-29.353-11.353-32.054-26.187c-0.124-4.523-0.12-9.05-0.051-13.569
		c0.306-2.435,1.251-4.729,2.177-6.993c1.406-0.342,2.816-0.697,4.222-1.052c-0.049,1.173-0.146,2.349-0.271,3.501
		c-2.398,9.647-0.655,20.472,5.991,28.081c7.633,9.398,21.152,13.262,32.618,9.413c4.265-1.305,8.072-3.756,11.448-6.618
		c0.425-0.429,1.277-1.272,1.716-1.701c2.961-3.587,5.258-7.71,6.797-12.107C473.028,223.688,457.452,236.013,441.981,235.331
		L441.981,235.331z"/>
	<path fill="#FEFEFD" d="M421.996,219.113c-6.646-7.609-8.39-18.434-5.991-28.081c2.65,4.966,5.827,9.656,9.566,13.866
		c3.4,3.867,9.854,4.104,12.005,9.168c1.773,2.76,2.783,6.406,5.795,8.11c1.985,1.052,3.742-0.72,5.226-1.812
		c2.73,0.455,5.507,0.675,8.279,0.627c3.114-0.088,6.039,1.517,9.187,0.917c-3.376,2.862-7.184,5.313-11.448,6.618
		C443.148,232.375,429.629,228.511,421.996,219.113L421.996,219.113z"/>
	<path fill="#E6BFA1" d="M418.981,192.339c-1.997-3.327,0.146-9.624,4.529-9.417c-0.573,1.015-1.158,2.008-1.755,2.979
		c2.632-1.594,6.494-3.094,8.664-0.001c-1.922,0.75-3.848,1.487-5.768,2.238c2.422,0.189,5.439-0.882,7.15,1.429
		c-2.563-0.241-6.563,0.768-5.585,4.18c2.299,4.818,5.399,9.209,7.702,14.019C426.745,205.289,422.672,198.499,418.981,192.339
		L418.981,192.339z"/>
	<path fill="#FFFFFF" d="M427.001,181.85c-0.889-1.523-2.727-3.462-1.268-5.236c3.132-3.321,7.568-4.845,11.693-6.513
		c2.915-0.358,5.825-0.607,8.736-0.771c-0.877,6.294-0.334,13.005,3.567,18.257c-1.356,4.143-0.528,8.611,1.845,12.215
		c-2.561-0.212-5.142-0.281-7.715-0.234c-3.313-2.375-6.494-4.932-9.643-7.508C432.908,188.159,432.284,182.057,427.001,181.85
		L427.001,181.85z"/>
	<path fill="#0E76BD" d="M432.198,197.271c-1.784-1.577-4.326-2.96-4.288-5.702c3.244-0.067,5.445,2.404,7.807,4.213
		c5.585,4.408,11.191,8.794,16.789,13.205c1.345,0.914,1.871,2.471,2.374,3.931c-0.813,0.121-2.432,0.365-3.243,0.486
		C444.866,208.399,438.799,202.511,432.198,197.271L432.198,197.271z"/>
	<path fill="#1076BD" d="M443.037,219.466c-3.829-6.364-7.627-12.801-10.94-19.455c6.843,3.724,10.66,10.729,14.21,17.325
		C447.934,219.629,444.417,221.65,443.037,219.466L443.037,219.466z"/>
	<path fill="#E6BFA2" d="M448.815,218.283c-1.304-2.922-3.037-5.618-4.683-8.357c2.477,1.789,4.604,4.164,7.431,5.429
		c3.055,1.254,6.207-2.75,4.346-5.445c-2.684-3.464-6.74-5.507-9.871-8.532c5.709-0.158,11.609,1.539,15.278,6.155
		c-1.589-5.94-9.435-7.37-10.146-13.758c-1.296-4.32,2.228-7.546,5.384-9.761c-2.048,0.377-4.063,0.882-6.046,1.48
		c-3.326-5.934-3.409-13.092-1.096-19.401c7.548,2.367,14.262,7.01,19.168,13.211c-1.503,1.624-3.386,2.768-5.424,3.56
		c2.388,0.231,4.724-0.198,6.88-1.29c2.749,4.646,5.347,9.862,4.734,15.43c-0.428,5.42-3.014,10.363-5.928,14.838
		c-1.588,2.35-1.552,5.41-3.202,7.718c-2.099,1.263-4.481-0.187-6.655-0.419C455.593,218.871,452.135,219.217,448.815,218.283
		L448.815,218.283z"/>
	<path fill="#FCFEFD" d="M467.778,220.208c1.397-6.147,5.369-11.103,7.867-16.793c-0.314,1.581-0.602,3.149-1.07,4.686
		C473.036,212.498,470.739,216.62,467.778,220.208L467.778,220.208z"/>
	
		<text transform="matrix(-0.0015 -1 1 -0.0015 444.6641 152.2803)" fill="#0E76BC" font-family="'ShowcardGothic-Reg'" font-size="25.836">Zebo</text>
	<text transform="matrix(-0.0015 -1 1 -0.0015 456.8242 154.0029)"><tspan x="0" y="0" fill="#404042" font-family="'ShowcardGothic-Reg'" font-size="15.1976" letter-spacing="1">Restor</tspan><tspan x="65.003" y="0" fill="#404042" font-family="'ShowcardGothic-Reg'" font-size="33.4348" letter-spacing="2">APP</tspan></text>
</g>
</svg>
